<mxfile host="app.diagrams.net" modified="2024-02-19T04:29:44.526Z" agent="Mozilla/5.0 (Windows NT 10.0; Win64; x64) AppleWebKit/537.36 (KHTML, like Gecko) Chrome/121.0.0.0 Safari/537.36" etag="epAhpwJfbg6WYSopNUqx" version="21.6.8" type="github">
  <diagram id="Z3PAJ1nnGkne7rxsH2KE" name="Page-1">
    <mxGraphModel dx="880" dy="426" grid="1" gridSize="10" guides="1" tooltips="1" connect="1" arrows="1" fold="1" page="1" pageScale="1" pageWidth="850" pageHeight="1100" math="0" shadow="0">
      <root>
        <mxCell id="0" />
        <mxCell id="1" parent="0" />
        <mxCell id="j4D3h6VHfXa6VxwGfoST-14" style="edgeStyle=orthogonalEdgeStyle;rounded=0;orthogonalLoop=1;jettySize=auto;html=1;entryX=0;entryY=0.5;entryDx=0;entryDy=0;" edge="1" parent="1" source="j4D3h6VHfXa6VxwGfoST-1" target="j4D3h6VHfXa6VxwGfoST-3">
          <mxGeometry relative="1" as="geometry" />
        </mxCell>
        <mxCell id="j4D3h6VHfXa6VxwGfoST-1" value="Application Server" style="image;points=[];aspect=fixed;html=1;align=center;shadow=0;dashed=0;image=img/lib/allied_telesis/computer_and_terminals/Server_Desktop.svg;" vertex="1" parent="1">
          <mxGeometry x="620" y="156" width="39.44" height="50" as="geometry" />
        </mxCell>
        <mxCell id="j4D3h6VHfXa6VxwGfoST-3" value="Database" style="image;aspect=fixed;perimeter=ellipsePerimeter;html=1;align=center;shadow=0;dashed=0;spacingTop=3;image=img/lib/active_directory/databases.svg;" vertex="1" parent="1">
          <mxGeometry x="760" y="156" width="50" height="49" as="geometry" />
        </mxCell>
        <mxCell id="j4D3h6VHfXa6VxwGfoST-13" style="edgeStyle=orthogonalEdgeStyle;rounded=0;orthogonalLoop=1;jettySize=auto;html=1;entryX=-0.025;entryY=0.68;entryDx=0;entryDy=0;entryPerimeter=0;" edge="1" parent="1" source="j4D3h6VHfXa6VxwGfoST-4" target="j4D3h6VHfXa6VxwGfoST-1">
          <mxGeometry relative="1" as="geometry" />
        </mxCell>
        <mxCell id="j4D3h6VHfXa6VxwGfoST-4" value="Load Balancer" style="shape=image;html=1;verticalAlign=top;verticalLabelPosition=bottom;labelBackgroundColor=#ffffff;imageAspect=0;aspect=fixed;image=https://cdn2.iconfinder.com/data/icons/whcompare-isometric-web-hosting-servers/50/fast-website-load-speed-128.png" vertex="1" parent="1">
          <mxGeometry x="430" y="140" width="100" height="100" as="geometry" />
        </mxCell>
        <mxCell id="j4D3h6VHfXa6VxwGfoST-12" style="edgeStyle=orthogonalEdgeStyle;rounded=0;orthogonalLoop=1;jettySize=auto;html=1;" edge="1" parent="1" source="j4D3h6VHfXa6VxwGfoST-5" target="j4D3h6VHfXa6VxwGfoST-4">
          <mxGeometry relative="1" as="geometry" />
        </mxCell>
        <mxCell id="j4D3h6VHfXa6VxwGfoST-5" value="Akamai Servers" style="image;aspect=fixed;perimeter=ellipsePerimeter;html=1;align=center;shadow=0;dashed=0;spacingTop=3;image=img/lib/active_directory/cluster_server.svg;" vertex="1" parent="1">
          <mxGeometry x="250" y="150" width="80" height="80" as="geometry" />
        </mxCell>
        <mxCell id="j4D3h6VHfXa6VxwGfoST-10" style="edgeStyle=orthogonalEdgeStyle;rounded=0;orthogonalLoop=1;jettySize=auto;html=1;entryX=0.07;entryY=0.4;entryDx=0;entryDy=0;entryPerimeter=0;" edge="1" parent="1" source="j4D3h6VHfXa6VxwGfoST-8" target="j4D3h6VHfXa6VxwGfoST-9">
          <mxGeometry relative="1" as="geometry">
            <Array as="points">
              <mxPoint x="60" y="92" />
            </Array>
          </mxGeometry>
        </mxCell>
        <mxCell id="j4D3h6VHfXa6VxwGfoST-8" value="" style="image;html=1;image=img/lib/clip_art/computers/Network_128x128.png" vertex="1" parent="1">
          <mxGeometry x="30" y="160" width="80" height="80" as="geometry" />
        </mxCell>
        <mxCell id="j4D3h6VHfXa6VxwGfoST-11" style="edgeStyle=orthogonalEdgeStyle;rounded=0;orthogonalLoop=1;jettySize=auto;html=1;entryX=0.5;entryY=0;entryDx=0;entryDy=0;" edge="1" parent="1" source="j4D3h6VHfXa6VxwGfoST-9" target="j4D3h6VHfXa6VxwGfoST-5">
          <mxGeometry relative="1" as="geometry" />
        </mxCell>
        <mxCell id="j4D3h6VHfXa6VxwGfoST-9" value="Public Private&lt;br&gt;Cloud" style="ellipse;shape=cloud;whiteSpace=wrap;html=1;" vertex="1" parent="1">
          <mxGeometry x="100" y="60" width="120" height="80" as="geometry" />
        </mxCell>
      </root>
    </mxGraphModel>
  </diagram>
</mxfile>
